<svg xmlns="http://www.w3.org/2000/svg" xmlns:xlink="http://www.w3.org/1999/xlink" xml:space="preserve" width="1228" height="417"><rect x="0" y="0" width="1228" height="417" style="fill: #ffffff; fill-opacity: 1;"></rect><g class="subplot xy"><rect x="80" y="100" width="1050" height="237" style="stroke-width: 0px; fill: #ffffff; fill-opacity: 1;"></rect><g transform="translate(80,100)"><path class="xgrid crisp" d="M0,0v237" transform="translate(262.5,0)" style="stroke: #eeeeee; stroke-opacity: 1; stroke-width: 1px;"></path><path class="xgrid crisp" d="M0,0v237" transform="translate(787.5,0)" style="stroke: #eeeeee; stroke-opacity: 1; stroke-width: 1px;"></path><path class="ygrid crisp" d="M0,0h1050" transform="translate(0,182.96)" style="stroke: #eeeeee; stroke-opacity: 1; stroke-width: 1px;"></path><path class="ygrid crisp" d="M0,0h1050" transform="translate(0,140.19)" style="stroke: #eeeeee; stroke-opacity: 1; stroke-width: 1px;"></path><path class="ygrid crisp" d="M0,0h1050" transform="translate(0,97.41)" style="stroke: #eeeeee; stroke-opacity: 1; stroke-width: 1px;"></path><path class="ygrid crisp" d="M0,0h1050" transform="translate(0,54.63)" style="stroke: #eeeeee; stroke-opacity: 1; stroke-width: 1px;"></path><path class="ygrid crisp" d="M0,0h1050" transform="translate(0,11.85)" style="stroke: #eeeeee; stroke-opacity: 1; stroke-width: 1px;"></path></g><g></g><g transform="translate(80,100)"><path class="xzl zl crisp" d="M0,0v237" transform="translate(525,0)" style="stroke: #444444; stroke-opacity: 1; stroke-width: 1px;"></path><path class="yzl zl crisp" d="M0,0h1050" transform="translate(0,225.74)" style="stroke: #444444; stroke-opacity: 1; stroke-width: 1px;"></path></g><g></g><svg preserveAspectRatio="none" x="80" y="100" width="1050" height="237" style="fill: none;" viewBox="0 0 1050 237"><g class="maplayer"></g><g class="barlayer"></g><g class="errorlayer"><g class="errorbars"></g></g><g class="scatterlayer"><g class="trace scatter" style="stroke-miterlimit: 2; opacity: 1;"><path class="js-line" d="M0,11.85L55.26,54.51L110.53,92.43L165.79,125.61L221.05,154.05L276.32,177.75L331.58,196.71L386.84,210.93L442.11,220.41L497.37,225.15L552.63,225.15L607.89,220.41L663.16,210.93L718.42,196.71L773.68,177.75L828.95,154.05L884.21,125.61L939.47,92.43L994.74,54.51L1050,11.85" style="fill: none; stroke: #1f77b4; stroke-opacity: 1; stroke-width: 2px;"></path></g></g><g class="boxlayer"></g></svg><g></g><path class="crisp" transform="translate(80,100)" d="M-1,237.5h1052" style="fill: none; stroke-width: 1px; stroke: #000000; stroke-opacity: 0;"></path><path class="crisp" transform="translate(80,100)" d="M-0.5,-1v238" stroke-width="1px" style="fill: none; stroke: #000000; stroke-opacity: 0;"></path><g></g><g transform="translate(80,100)"><g class="xtick" data-bb="236"><text text-anchor="middle" x="0" y="252" transform="translate(0,0)" style="font-family: 'Open sans', verdana, arial, sans-serif; font-size: 12px; fill: #444444; fill-opacity: 1;" data-bb="230">−10</text></g><g class="xtick" data-bb="237"><text text-anchor="middle" x="0" y="252" transform="translate(262.5,0)" style="font-family: 'Open sans', verdana, arial, sans-serif; font-size: 12px; fill: #444444; fill-opacity: 1;" data-bb="231">−5</text></g><g class="xtick" data-bb="238"><text text-anchor="middle" x="0" y="252" transform="translate(525,0)" style="font-family: 'Open sans', verdana, arial, sans-serif; font-size: 12px; fill: #444444; fill-opacity: 1;" data-bb="232">0</text></g><g class="xtick" data-bb="239"><text text-anchor="middle" x="0" y="252" transform="translate(787.5,0)" style="font-family: 'Open sans', verdana, arial, sans-serif; font-size: 12px; fill: #444444; fill-opacity: 1;" data-bb="233">5</text></g><g class="xtick" data-bb="240"><text text-anchor="middle" x="0" y="252" transform="translate(1050,0)" style="font-family: 'Open sans', verdana, arial, sans-serif; font-size: 12px; fill: #444444; fill-opacity: 1;" data-bb="234">10</text></g></g><g transform="translate(80,100)"><g class="ytick" data-bb="242"><text text-anchor="end" x="-3" y="6" transform="translate(0,225.74)" style="font-family: 'Open sans', verdana, arial, sans-serif; font-size: 12px; fill: #444444; fill-opacity: 1;">0</text></g><g class="ytick" data-bb="243"><text text-anchor="end" x="-3" y="6" transform="translate(0,182.96)" style="font-family: 'Open sans', verdana, arial, sans-serif; font-size: 12px; fill: #444444; fill-opacity: 1;">20</text></g><g class="ytick" data-bb="244"><text text-anchor="end" x="-3" y="6" transform="translate(0,140.19)" style="font-family: 'Open sans', verdana, arial, sans-serif; font-size: 12px; fill: #444444; fill-opacity: 1;">40</text></g><g class="ytick" data-bb="245"><text text-anchor="end" x="-3" y="6" transform="translate(0,97.41)" style="font-family: 'Open sans', verdana, arial, sans-serif; font-size: 12px; fill: #444444; fill-opacity: 1;">60</text></g><g class="ytick" data-bb="246"><text text-anchor="end" x="-3" y="6" transform="translate(0,54.63)" style="font-family: 'Open sans', verdana, arial, sans-serif; font-size: 12px; fill: #444444; fill-opacity: 1;">80</text></g><g class="ytick" data-bb="247"><text text-anchor="end" x="-3" y="6" transform="translate(0,11.85)" style="font-family: 'Open sans', verdana, arial, sans-serif; font-size: 12px; fill: #444444; fill-opacity: 1;">100</text></g></g><g></g></g><g transform="translate(80,100)"><rect class="drag nsewdrag cursor-move" data-subplot="xy" x="0" y="0" width="1050" height="237" style="fill: #000000; opacity: 0; stroke-width: 0px;"></rect><rect class="drag nwdrag cursor-nw-resize" data-subplot="xy" x="-20" y="-20" width="20" height="20" style="fill: #000000; opacity: 0; stroke-width: 0px;"></rect><rect class="drag nedrag cursor-ne-resize" data-subplot="xy" x="1050" y="-20" width="20" height="20" style="fill: #000000; opacity: 0; stroke-width: 0px;"></rect><rect class="drag swdrag cursor-sw-resize" data-subplot="xy" x="-20" y="237" width="20" height="20" style="fill: #000000; opacity: 0; stroke-width: 0px;"></rect><rect class="drag sedrag cursor-se-resize" data-subplot="xy" x="1050" y="237" width="20" height="20" style="fill: #000000; opacity: 0; stroke-width: 0px;"></rect><rect class="drag ewdrag cursor-ew-resize" data-subplot="xy" x="105" y="237.5" width="840" height="20" style="fill: #000000; opacity: 0; stroke-width: 0px;"></rect><rect class="drag wdrag cursor-w-resize" data-subplot="xy" x="0" y="237.5" width="105" height="20" style="fill: #000000; opacity: 0; stroke-width: 0px;"></rect><rect class="drag edrag cursor-e-resize" data-subplot="xy" x="945" y="237.5" width="105" height="20" style="fill: #000000; opacity: 0; stroke-width: 0px;"></rect><rect class="drag nsdrag cursor-ns-resize" data-subplot="xy" x="-20.5" y="23.700000000000003" width="20" height="189.60000000000002" style="fill: #000000; opacity: 0; stroke-width: 0px;"></rect><rect class="drag sdrag cursor-s-resize" data-subplot="xy" x="-20.5" y="213.3" width="20" height="23.700000000000003" style="fill: #000000; opacity: 0; stroke-width: 0px;"></rect><rect class="drag ndrag cursor-n-resize" data-subplot="xy" x="-20.5" y="0" width="20" height="23.700000000000003" style="fill: #000000; opacity: 0; stroke-width: 0px;"></rect></g><g class="infolayer"><g class="g-gtitle"><text class="gtitle" x="614" y="50" text-anchor="middle" style="font-family: 'Open sans', verdana, arial, sans-serif; font-size: 16.8px; fill: #444444; opacity: 1;">min(x^2) in [-10, +10]</text></g><g class="g-xtitle" data-bb="235"></g><g class="g-ytitle" data-bb="241"><text class="ytitle" transform="rotate(-90,41.2,218.5) translate(0, 0)" x="41.2" y="218.5" text-anchor="middle" style="font-family: 'Open sans', verdana, arial, sans-serif; font-size: 14.4px; fill: #444444; opacity: 1;">x^2</text></g><svg class="legend" x="1151" y="100" width="65" height="29"><rect class="bg" style="stroke: #444444; stroke-opacity: 1; fill: #ffffff; opacity: 1; stroke-width: 0px;" x="0" y="0" width="65" height="29"></rect><g class="traces" transform="translate(0,14.5)"><g class="legendfill"></g><g class="legendlines"><path class="js-line" d="M5,0h30" style="fill: none; stroke: #1f77b4; stroke-opacity: 1; stroke-width: 2px;"></path></g><g class="legendsymbols" style="opacity: 1;"><g class="legendpoints"></g></g><text class="legendtext text-0" x="40" y="4.680000000000001" xml:space="preserve" style="text-anchor: start; font-family: 'Open sans', verdana, arial, sans-serif; font-size: 12px; fill: #444444; opacity: 1; pointer-events: all;" data-bb="229">x^2</text></g></svg></g><g class="hoverlayer"></g><text class="js-plot-link-container" text-anchor="end" x="1221" y="408" style="font-family: 'Open Sans', Arial, sans-serif; font-size: 12px; fill: #444444;"><tspan class="js-link-to-tool"></tspan><tspan class="js-link-spacer"></tspan><tspan class="js-sourcelinks"></tspan></text></svg>